<svg width="100" height="100" viewBox="0 0 100 100" fill="none" xmlns="http://www.w3.org/2000/svg">
<path d="M30.5247 10.6278C29.7358 10.6278 28.9669 10.9056 28.4235 11.4478C27.8791 11.9878 27.6013 12.7622 27.6013 13.5489V86.4956C27.6013 87.2822 27.8791 88.0511 28.4235 88.5956C28.9669 89.14 29.7358 89.4178 30.5247 89.4178H69.5469C70.3336 89.4178 71.1091 89.14 71.6469 88.5956C72.1924 88.0511 72.4691 87.2822 72.4691 86.4956V13.5489C72.4691 12.7622 72.1913 11.9878 71.6469 11.4478C71.1091 10.9044 70.3336 10.6278 69.5469 10.6278H63.5224C63.048 10.6278 62.6258 10.9111 62.4469 11.35L61.5491 13.5489C61.2591 14.2678 61.0291 14.62 60.6624 14.8578C60.3047 15.1011 59.668 15.3033 58.418 15.3033H41.6513C40.4024 15.3033 39.7658 15.1 39.4069 14.8578C39.0424 14.6211 38.8102 14.2689 38.5213 13.5489L37.6247 11.35C37.4491 10.9156 37.0269 10.6278 36.5591 10.6278H30.5247Z" fill="#D0E3F9"/>
<path d="M30.3487 8.13332H69.7198C72.562 8.13332 74.8053 10.3889 74.8053 13.2255V86.8189C74.8053 89.6544 72.5609 91.9122 69.7198 91.9122H30.3487C27.5087 91.9122 25.262 89.6544 25.262 86.8189V13.2255C25.2631 10.39 27.5087 8.13332 30.3487 8.13332ZM30.3487 5.82999C26.2709 5.82999 22.9531 9.14776 22.9531 13.2255V86.8189C22.9531 90.8989 26.2709 94.2144 30.3487 94.2144H69.7198C73.7998 94.2144 77.1209 90.8989 77.1209 86.8189V13.2255C77.1209 9.14776 73.7998 5.82999 69.7198 5.82999H30.3487Z" fill="#ADBCD2"/>
<path d="M46.3107 10.6278C45.6674 10.6278 45.1541 11.1411 45.1541 11.7844C45.1541 12.4267 45.6674 12.9422 46.3107 12.9422H54.3429C54.9796 12.9422 55.5007 12.4267 55.5007 11.7844C55.5007 11.1411 54.9796 10.6278 54.3429 10.6278H46.3107Z" fill="#C4C4D5"/>
</svg>
